<?xml version="1.0" encoding="UTF-8"?>
<svg version="1.1" xmlns="http://www.w3.org/2000/svg" width="1435" height="1435">
<path d="M0 0 C473.55 0 947.1 0 1435 0 C1435 473.55 1435 947.1 1435 1435 C961.45 1435 487.9 1435 0 1435 C0 961.45 0 487.9 0 0 Z " fill="#000000" transform="translate(0,0)"/>
<path d="M0 0 C197.01 0 394.02 0 597 0 C597 315.48 597 630.96 597 956 C498.86625 956.020625 400.7325 956.04125 299.625 956.0625 C268.58002441 956.071604 237.53504883 956.08070801 205.54931641 956.09008789 C167.78979492 956.09460449 167.78979492 956.09460449 150.14193726 956.09544373 C136.9349307 956.09644135 123.72792922 956.10076437 110.5209241 956.10667343 C97.06887185 956.11261116 83.61682283 956.11484017 70.16476931 956.11344495 C62.15586072 956.11272473 54.14696407 956.11474296 46.13805767 956.1208076 C40.24335288 956.12497047 34.34865661 956.1239827 28.45395088 956.12090111 C26.05767368 956.12047368 23.66139549 956.12177078 21.26512027 956.12488258 C18.02286987 956.1288487 14.78068047 956.1267616 11.53843117 956.12304783 C10.58905872 956.12567485 9.63968627 956.12830188 8.66154496 956.13100851 C7.80420807 956.12876121 6.94687119 956.1265139 6.06355441 956.1241985 C5.3213986 956.12435448 4.57924279 956.12451046 3.81459741 956.12467116 C2 956 2 956 0 955 C0 924.64 0 894.28 0 863 C9 869 9 869 12.38671875 871.3515625 C23.10732019 878.77998527 34.43190399 884.99652352 46 891 C47.10964111 891.57645264 47.10964111 891.57645264 48.24169922 892.16455078 C103.59849562 920.50335962 167.27180062 925.35773213 227 910 C227.82145508 909.79036621 228.64291016 909.58073242 229.48925781 909.36474609 C273.80505147 897.77267683 314.26650451 872.52718146 348 842 C348.54817383 841.50822266 349.09634766 841.01644531 349.66113281 840.50976562 C361.35313024 830.00309967 372.92536184 819.0849968 383 807 C383.82628906 806.03964844 384.65257812 805.07929687 385.50390625 804.08984375 C429.68237606 752.67322591 463.42407298 691.56942614 489 629 C489.26407654 628.35540833 489.52815308 627.71081665 489.80023193 627.04669189 C498.56631987 605.61329486 506.55859608 583.92679884 514 562 C514.2464325 561.27508362 514.49286499 560.55016724 514.74676514 559.80328369 C547.55566497 463.10407212 566.62774228 362.2049615 580.76818848 235.46405029 C581.01047073 232.88870093 581.25673028 230.31374714 581.50292969 227.73876953 C586.89244112 170.92530188 588.41415025 114.09059105 590 57 C514.76 57 439.52 57 362 57 C362 73.83 362 90.66 362 108 C361.45039184 122.68238932 360.85891907 137.3364042 360 152 C359.92523437 153.31371582 359.85046875 154.62743164 359.7734375 155.98095703 C359.32695607 163.63625319 358.78134563 171.28042564 358.16607666 178.9239502 C357.98556073 181.18049886 357.80989279 183.43740082 357.63427734 185.69433594 C349.98900254 283.0779686 333.98553436 380.45712864 226 640 C225.15359302 641.15360709 224.30723746 642.3072519 223.4609375 643.4609375 C217.9031321 650.94373767 211.82324994 657.82494718 205.38134766 664.55126953 C204.15023014 665.84244156 202.93890089 667.15241573 201.73046875 668.46484375 C191.68658119 679.0677603 176.84487959 690.79133882 161.9375 692.3125 C141.28388389 690.67332412 122.83274532 671.20373448 109.80859375 656.53125 C107.46882615 653.73904115 105.21710664 650.88958223 103 648 C102.23647217 647.0104834 102.23647217 647.0104834 101.45751953 646.00097656 C86.99888655 627.14776345 75.02367778 607.01833301 64 586 C63.51708496 585.08476563 63.03416992 584.16953125 62.53662109 583.2265625 C35.24838252 531.18301701 16.60101103 473.97969103 2.53961837 417.06683922 C2.07450634 415.2853732 1.5210648 413.52739724 0.95161629 411.77648926 C-0.75124589 404.8772389 -0.26765871 397.64715457 -0.24050903 390.58666992 C-0.24138455 388.90503372 -0.2431396 387.22339779 -0.24569702 385.54176331 C-0.25017719 380.92128117 -0.24216394 376.30089194 -0.23214546 371.68042159 C-0.22340786 366.62112071 -0.22633497 361.56182406 -0.2277813 356.5025177 C-0.22884436 346.68292843 -0.21961217 336.86337575 -0.20677864 327.04379588 C-0.19237765 315.6847926 -0.19078908 304.3258113 -0.18920898 292.96679688 C-0.17870866 262.97785878 -0.15078643 232.98892884 -0.125 203 C-0.063125 102.515 -0.063125 102.515 0 0 Z " fill="#0000FF" transform="translate(838,238)"/>
<path d="M0 0 C196.35 0 392.7 0 595 0 C595.226875 64.1025 595.45375 128.205 595.6875 194.25 C595.83771606 224.50349121 595.83771606 224.50349121 595.9909668 255.36816406 C596.04064941 280.17919922 596.04064941 280.17919922 596.04988098 291.82952881 C596.06004431 299.88963156 596.100214 307.94886705 596.16133118 316.00872803 C596.79175371 401.87588998 596.79175371 401.87588998 585.49204445 433.67482758 C583.44625566 439.46463393 581.81888879 445.37493834 580.14530641 451.28056598 C568.1965754 493.39708239 552.9875166 534.54755195 534 574 C533.59394531 574.85980469 533.18789063 575.71960938 532.76953125 576.60546875 C522.8060155 597.69104859 510.82396149 618.20593054 497 637 C496.59120605 637.55751953 496.18241211 638.11503906 495.76123047 638.68945312 C460.01393273 687.06925458 460.01393273 687.06925458 434 692 C420.95023521 693.33160865 409.48427699 684.64630337 399.75 677 C387.75998739 666.91126082 377.27213461 655.60981533 368 643 C367.58975586 642.45053711 367.17951172 641.90107422 366.75683594 641.33496094 C351.15185816 620.39241356 338.39883492 597.55907461 327.01708984 574.09179688 C326.3062031 572.62975231 325.5899401 571.17031508 324.86962891 569.71289062 C285.70940746 490.4634936 264.54513371 401.73852209 250 315 C249.8493811 314.10442383 249.69876221 313.20884766 249.5435791 312.28613281 C240.88027253 260.54454013 235.3550835 208.38037276 232.18426514 156.02575684 C231.96163231 152.36997678 231.72879922 148.71488754 231.493927 145.05987549 C229.70934679 115.63470335 230 86.5647962 230 57 C154.76 57 79.52 57 2 57 C3.19576167 113.34395838 3.19576167 113.34395838 5.85540771 169.60571289 C5.99728682 171.95507275 6.13496961 174.30464821 6.27197266 176.65429688 C12.11491014 275.5897304 27.01223908 374.26455276 82 574 C82.24171936 574.69486511 82.48343872 575.38973022 82.73248291 576.10565186 C93.18864771 606.10502171 105.05996593 635.4830121 118.67431641 664.19287109 C119.90780943 666.80478689 121.12015311 669.42519852 122.32421875 672.05078125 C127.57833629 683.44443676 133.4590328 694.43891732 139.55957031 705.39990234 C140.87562632 707.77549497 142.17248978 710.16013562 143.4609375 712.55078125 C159.40214921 741.97791439 178.36162478 770.43437519 200 796 C200.85738666 797.03073806 201.71412505 798.0620156 202.5703125 799.09375 C211.91797391 810.31229086 221.82318203 820.90270417 232.125 831.25 C233.24575928 832.37776855 233.24575928 832.37776855 234.38916016 833.52832031 C235.08831543 834.22538086 235.7874707 834.92244141 236.5078125 835.640625 C237.13316895 836.26485352 237.75852539 836.88908203 238.40283203 837.53222656 C239.95104305 839.0904927 239.95104305 839.0904927 242 840 C242 840.66 242 841.32 242 842 C242.53496094 842.22171875 243.06992188 842.4434375 243.62109375 842.671875 C246.80682735 844.45044548 249.35704042 846.8326775 252.0625 849.25 C303.78019554 894.32328885 373.32697587 922.97148851 442.578125 918.703125 C496.33709092 914.66049594 544.01925678 896.27469461 587.95800781 865.37524414 C590.25014422 863.83153247 592.63031787 862.42180928 595 861 C595 892.02 595 923.04 595 955 C591.52942125 955.69411575 589.02015295 956.12503381 585.61103565 956.12534916 C584.33067565 956.12910444 584.33067565 956.12910444 583.0244498 956.13293558 C581.62997726 956.12942383 581.62997726 956.12942383 580.20733356 956.12584114 C579.20939981 956.12729458 578.21146605 956.12874802 577.18329188 956.13024551 C573.81865672 956.13391286 570.45406664 956.13041565 567.08943176 956.12698364 C564.66115902 956.12813516 562.23288645 956.1297229 559.80461425 956.13171089 C554.51445378 956.13502384 549.22430678 956.13521076 543.93414688 956.13266373 C536.06774694 956.12888657 528.20135562 956.13081219 520.33495573 956.13387203 C506.28771981 956.13914254 492.24048844 956.13867954 478.19325208 956.13579312 C465.9023245 956.1332799 453.61139859 956.13261978 441.32047081 956.13381577 C440.09866387 956.13393034 440.09866387 956.13393034 438.85217396 956.13404724 C435.54592801 956.13435856 432.23968205 956.13467696 428.9334361 956.135007 C397.90679083 956.13806731 366.88014846 956.1352903 335.85350364 956.1299101 C308.26797548 956.12516301 280.68245194 956.1255901 253.09692383 956.13037109 C222.12334948 956.13572131 191.1497777 956.13785164 160.17620295 956.13475883 C156.87682927 956.1344381 153.57745558 956.13412526 150.27808189 956.13381577 C149.46565676 956.13373669 148.65323162 956.13365761 147.81618755 956.13357614 C135.52873648 956.13243697 123.24128725 956.13377206 110.95383644 956.13629532 C96.9897555 956.13914854 83.02567982 956.13845261 69.06159953 956.13301457 C61.2390857 956.13006904 53.41658326 956.1298999 45.59406971 956.13366075 C39.76761864 956.13615391 33.94117773 956.13346794 28.11472782 956.12868617 C25.74675524 956.12756165 23.37878114 956.12815394 21.01080952 956.13056196 C17.81223164 956.13356716 14.61371747 956.13052015 11.41514301 956.12584114 C10.47847116 956.12818231 9.5417993 956.13052347 8.57674345 956.13293558 C7.73068068 956.13043207 6.8846179 956.12792855 6.01291686 956.12534916 C5.28061467 956.1252814 4.54831247 956.12521365 3.7938193 956.12514383 C2 956 2 956 0 955 C0 639.85 0 324.7 0 0 Z " fill="#0000FF" transform="translate(0,238)"/>
</svg>
